<svg xmlns="http://www.w3.org/2000/svg" width="200" height="67" viewBox="0 0 200 67" fill="none"><g clip-path="url(#clip0_2350_1679)"><path d="M96.1362 48.239H98.8706V37.9247H96.1362V48.239ZM96.1362 36.3162H98.8706V33.8633H96.1362V36.3162Z" fill="#80896C"></path><path d="M100.632 51.6162H103.367V47.0723H103.407C103.99 47.9569 104.935 48.54 106.383 48.54C109.037 48.54 110.846 46.4289 110.846 43.0913C110.846 39.8743 109.097 37.6426 106.363 37.6426C104.955 37.6426 103.99 38.3061 103.327 39.2108H103.266V37.9241H100.632V51.6162ZM105.8 46.268C104.171 46.268 103.306 45.0416 103.306 43.1717C103.306 41.322 103.99 39.8542 105.699 39.8542C107.388 39.8542 108.072 41.2214 108.072 43.1717C108.072 45.122 107.187 46.268 105.8 46.268Z" fill="#80896C"></path><path d="M116.301 48.54C118.874 48.54 120.643 47.2934 120.643 45.2225C120.643 42.8098 118.733 42.3273 117.004 41.9654C115.536 41.6638 114.169 41.5833 114.169 40.6987C114.169 39.9548 114.873 39.5526 115.939 39.5526C117.105 39.5526 117.808 39.9548 117.929 41.0606H120.402C120.201 38.9897 118.693 37.6426 115.979 37.6426C113.626 37.6426 111.777 38.7082 111.777 40.9399C111.777 43.1918 113.586 43.6945 115.436 44.0564C116.843 44.3378 118.15 44.4384 118.15 45.4236C118.15 46.1474 117.467 46.6098 116.26 46.6098C115.034 46.6098 114.189 46.0871 114.008 44.9008H111.475C111.636 47.0924 113.305 48.54 116.301 48.54Z" fill="#80896C"></path><path d="M131.025 48.2381V37.9238H128.291V43.8751C128.291 45.2423 127.506 46.2074 126.22 46.2074C125.054 46.2074 124.511 45.5439 124.511 44.3375V37.9238H121.796V44.8C121.796 47.0518 123.083 48.5196 125.375 48.5196C126.823 48.5196 127.627 47.9767 128.331 47.0317H128.391V48.2381H131.025Z" fill="#80896C"></path><path d="M132.794 48.2384H135.528V42.2468C135.528 40.8796 136.272 39.995 137.378 39.995C138.383 39.995 138.967 40.5981 138.967 41.7643V48.2384H141.701V42.2468C141.701 40.8796 142.405 39.995 143.551 39.995C144.556 39.995 145.139 40.5981 145.139 41.7643V48.2384H147.873V41.3019C147.873 39.05 146.647 37.6426 144.476 37.6426C143.169 37.6426 142.083 38.3262 141.379 39.4521H141.339C140.836 38.3664 139.791 37.6426 138.484 37.6426C137.056 37.6426 136.051 38.3664 135.488 39.3114H135.428V37.9241H132.794V48.2384Z" fill="#80896C"></path><path d="M96.1763 30.573H98.9107V16.1973H96.1763V30.573Z" fill="#80896C"></path><path d="M105.596 30.874C108.793 30.874 110.985 28.5015 110.985 25.4253C110.985 22.3491 108.793 19.9766 105.596 19.9766C102.4 19.9766 100.208 22.3491 100.208 25.4253C100.208 28.5015 102.4 30.874 105.596 30.874ZM105.596 28.783C103.908 28.783 102.983 27.4359 102.983 25.4253C102.983 23.4147 103.908 22.0475 105.596 22.0475C107.265 22.0475 108.21 23.4147 108.21 25.4253C108.21 27.4359 107.265 28.783 105.596 28.783Z" fill="#80896C"></path><path d="M116.8 34.091C118.328 34.091 119.655 33.7291 120.52 32.9248C121.284 32.2211 121.746 31.2359 121.746 29.7883V20.258H119.112V21.3438H119.072C118.449 20.4792 117.504 19.9766 116.217 19.9766C113.603 19.9766 111.753 21.9469 111.753 25.0232C111.753 28.1396 114.005 29.9491 116.297 29.9491C117.604 29.9491 118.388 29.4264 118.992 28.7428H119.052V29.8687C119.052 31.2761 118.308 32.02 116.76 32.02C115.493 32.02 114.91 31.5174 114.689 30.874H111.975C112.256 32.8846 113.985 34.091 116.8 34.091ZM116.76 27.7576C115.352 27.7576 114.428 26.7322 114.428 24.983C114.428 23.2539 115.352 22.1681 116.74 22.1681C118.388 22.1681 119.193 23.4549 119.193 24.9629C119.193 26.4909 118.489 27.7576 116.76 27.7576Z" fill="#80896C"></path><path d="M128.392 30.874C131.589 30.874 133.781 28.5015 133.781 25.4253C133.781 22.3491 131.589 19.9766 128.392 19.9766C125.196 19.9766 123.004 22.3491 123.004 25.4253C123.004 28.5015 125.196 30.874 128.392 30.874ZM128.392 28.783C126.703 28.783 125.779 27.4359 125.779 25.4253C125.779 23.4147 126.703 22.0475 128.392 22.0475C130.061 22.0475 131.006 23.4147 131.006 25.4253C131.006 27.4359 130.061 28.783 128.392 28.783Z" fill="#80896C"></path><path d="M136.178 26.6317H148V24.2793H136.178V26.6317Z" fill="#80896C"></path><path d="M148.867 36.1718C148.867 35.7091 149.242 35.334 149.705 35.334H151.38C151.843 35.334 152.218 35.7091 152.218 36.1718C152.218 36.6344 151.843 37.0095 151.38 37.0095H149.705C149.242 37.0095 148.867 36.6344 148.867 36.1718Z" fill="#80896C"></path><path fill-rule="evenodd" clip-rule="evenodd" d="M68.5215 13C79.5672 13 88.5215 21.9543 88.5215 33C88.5215 44.0457 79.5672 53 68.5215 53C57.4758 53 48.5215 44.0457 48.5215 33C48.5215 21.9543 57.4758 13 68.5215 13ZM67.7986 14.4966C65.517 14.8177 63.3444 16.6511 61.6579 19.7174C61.1687 20.6068 60.7273 21.5895 60.3426 22.6504C62.6358 22.0742 65.1549 21.7344 67.7986 21.6819V14.4966ZM58.6523 23.1308C59.1306 21.6296 59.7158 20.2484 60.3911 19.0206C61.2271 17.5006 62.2193 16.188 63.3372 15.1798C57.2583 16.9452 52.4667 21.7368 50.7013 27.8157C51.7094 26.6978 53.0221 25.7056 54.5421 24.8696C55.7699 24.1943 57.1511 23.6091 58.6523 23.1308ZM58.1719 24.8211C57.5956 27.1143 57.2559 29.6334 57.2034 32.2771H50.0181C50.3392 29.9954 52.1726 27.8228 55.2389 26.1364C56.1283 25.6472 57.1109 25.2058 58.1719 24.8211ZM58.6495 32.2771C58.7092 29.392 59.1245 26.6834 59.8117 24.2902C62.2049 23.603 64.9136 23.1876 67.7986 23.1279V26.2508C66.7223 29.0062 64.5271 31.2012 61.7716 32.2771H58.6495ZM57.2034 33.7229H50.0181C50.3392 36.0046 52.1726 38.1771 55.2389 39.8636C56.1283 40.3528 57.1109 40.7942 58.1719 41.1789C57.5956 38.8857 57.2559 36.3666 57.2034 33.7229ZM59.8117 41.7098C59.1245 39.3166 58.7092 36.608 58.6495 33.7229H61.7716C64.5271 34.7988 66.7224 36.9938 67.7986 39.7492V42.8721C64.9136 42.8124 62.2049 42.397 59.8117 41.7098ZM58.6523 42.8692C57.1511 42.3909 55.7699 41.8057 54.5421 41.1304C53.0221 40.2944 51.7094 39.3022 50.7013 38.1843C52.4667 44.2632 57.2583 49.0548 63.3372 50.8202C62.2193 49.812 61.2271 48.4994 60.3911 46.9793C59.7158 45.7516 59.1306 44.3704 58.6523 42.8692ZM67.7986 51.5034C65.517 51.1823 63.3444 49.3489 61.6579 46.2826C61.1687 45.3932 60.7273 44.4105 60.3426 43.3496C62.6358 43.9258 65.1549 44.2656 67.7986 44.3181V51.5034ZM73.7058 50.8202C74.8237 49.812 75.8159 48.4994 76.652 46.9793C77.3272 45.7516 77.9124 44.3704 78.3907 42.8692C79.8919 42.3909 81.2731 41.8057 82.5009 41.1304C84.0209 40.2944 85.3336 39.3022 86.3417 38.1843C84.5763 44.2632 79.7847 49.0548 73.7058 50.8202ZM76.7004 43.3496C76.3157 44.4105 75.8743 45.3932 75.3851 46.2826C73.6987 49.3489 71.5261 51.1823 69.2444 51.5034V44.3181C71.8881 44.2656 74.4072 43.9258 76.7004 43.3496ZM78.8711 41.1789C79.932 40.7942 80.9147 40.3528 81.8041 39.8636C84.8704 38.1771 86.7038 36.0046 87.0249 33.7229H79.8396C79.7871 36.3666 79.4473 38.8857 78.8711 41.1789ZM78.3936 33.7229C78.3339 36.608 77.9185 39.3166 77.2313 41.7098C74.8381 42.397 72.1295 42.8124 69.2444 42.8721V39.7515C70.3203 36.9951 72.516 34.7991 75.2723 33.7229H78.3936ZM79.8396 32.2771H87.0249C86.7038 29.9954 84.8704 27.8228 81.8041 26.1364C80.9147 25.6472 79.932 25.2058 78.8711 24.8211C79.4473 27.1143 79.7871 29.6334 79.8396 32.2771ZM77.2313 24.2902C77.9185 26.6834 78.3339 29.392 78.3936 32.2771H75.2723C72.516 31.2009 70.3203 29.0049 69.2444 26.2485V23.1279C72.1295 23.1876 74.8381 23.603 77.2313 24.2902ZM78.3907 23.1308C79.8919 23.6091 81.2731 24.1943 82.5009 24.8696C84.0209 25.7056 85.3336 26.6978 86.3417 27.8157C84.5763 21.7368 79.7847 16.9452 73.7058 15.1798C74.8237 16.188 75.8159 17.5006 76.652 19.0206C77.3272 20.2484 77.9124 21.6296 78.3907 23.1308ZM69.2444 14.4966C71.5261 14.8177 73.6987 16.6511 75.3851 19.7174C75.8743 20.6068 76.3157 21.5895 76.7004 22.6504C74.4072 22.0742 71.8881 21.7344 69.2444 21.6819V14.4966Z" fill="#80896C"></path></g><defs><clipPath id="clip0_2350_1679"><rect width="105" height="40" fill="white" transform="translate(48 13)"></rect></clipPath></defs></svg>