<svg xmlns="http://www.w3.org/2000/svg" width="200" height="67" viewBox="0 0 200 67" fill="none"><g clip-path="url(#clip0_2350_1738)"><path d="M92.9468 19.0938H96.9415V40.8828H103.514V44.5144H92.9468V19.0938Z" fill="#80896C"></path><path d="M111.062 44.8774C109.101 44.8774 107.6 44.3206 106.559 43.2069C105.518 42.0932 104.998 40.5196 104.998 38.4859V25.1219C104.998 23.0883 105.518 21.5146 106.559 20.401C107.6 19.2873 109.101 18.7305 111.062 18.7305C113.023 18.7305 114.524 19.2873 115.565 20.401C116.606 21.5146 117.127 23.0883 117.127 25.1219V38.4859C117.127 40.5196 116.606 42.0932 115.565 43.2069C114.524 44.3206 113.023 44.8774 111.062 44.8774ZM111.062 41.2459C112.442 41.2459 113.132 40.4106 113.132 38.7401V24.8677C113.132 23.1972 112.442 22.362 111.062 22.362C109.682 22.362 108.992 23.1972 108.992 24.8677V38.7401C108.992 40.4106 109.682 41.2459 111.062 41.2459Z" fill="#80896C"></path><path d="M125.494 44.8774C123.557 44.8774 122.08 44.3327 121.063 43.2432C120.046 42.1296 119.538 40.5438 119.538 38.4859V25.1219C119.538 23.0641 120.046 21.4904 121.063 20.401C122.08 19.2873 123.557 18.7305 125.494 18.7305C127.431 18.7305 128.907 19.2873 129.924 20.401C130.941 21.4904 131.449 23.0641 131.449 25.1219V27.3008H127.673V24.8677C127.673 23.1972 126.983 22.362 125.603 22.362C124.223 22.362 123.533 23.1972 123.533 24.8677V38.7765C123.533 40.4228 124.223 41.2459 125.603 41.2459C126.983 41.2459 127.673 40.4228 127.673 38.7765V33.8013H125.675V30.1698H131.449V38.4859C131.449 40.5438 130.941 42.1296 129.924 43.2432C128.907 44.3327 127.431 44.8774 125.494 44.8774Z" fill="#80896C"></path><path d="M139.788 44.8774C137.827 44.8774 136.326 44.3206 135.285 43.2069C134.244 42.0932 133.724 40.5196 133.724 38.4859V25.1219C133.724 23.0883 134.244 21.5146 135.285 20.401C136.326 19.2873 137.827 18.7305 139.788 18.7305C141.749 18.7305 143.25 19.2873 144.291 20.401C145.332 21.5146 145.853 23.0883 145.853 25.1219V38.4859C145.853 40.5196 145.332 42.0932 144.291 43.2069C143.25 44.3206 141.749 44.8774 139.788 44.8774ZM139.788 41.2459C141.168 41.2459 141.858 40.4106 141.858 38.7401V24.8677C141.858 23.1972 141.168 22.362 139.788 22.362C138.408 22.362 137.718 23.1972 137.718 24.8677V38.7401C137.718 40.4106 138.408 41.2459 139.788 41.2459Z" fill="#80896C"></path><path d="M54.3813 44.5156C59.2958 44.5156 63.2798 40.5316 63.2798 35.6172C63.2798 30.7027 59.2958 26.7188 54.3813 26.7188V32.9476C55.8557 32.9476 57.0509 34.1428 57.0509 35.6172C57.0509 37.0915 55.8557 38.2867 54.3813 38.2867V44.5156Z" fill="#80896C"></path><path d="M84.0427 29.683C82.5221 29.2013 80.9028 28.9414 79.2227 28.9414C70.4176 28.9414 63.2798 36.0794 63.2798 44.8844C63.2798 45.7682 63.3517 46.6352 63.49 47.4798H73.3958C73.0422 46.687 72.8456 45.8087 72.8456 44.8844C72.8456 41.3624 75.7007 38.5072 79.2227 38.5072C81.1477 38.5072 82.8734 39.3601 84.0427 40.7086V29.683Z" fill="#80896C"></path><path d="M55.9458 17.8203C56.6835 24.4941 62.3416 29.6849 69.212 29.6849C76.0823 29.6849 81.7404 24.4941 82.4781 17.8203H72.9326C72.3433 19.2976 70.8995 20.3415 69.212 20.3415C67.5244 20.3415 66.0807 19.2976 65.4913 17.8203H55.9458Z" fill="#80896C"></path></g><defs><clipPath id="clip0_2350_1738"><rect width="92" height="30" fill="white" transform="translate(54 18)"></rect></clipPath></defs></svg>