<svg xmlns="http://www.w3.org/2000/svg" width="200" height="67" viewBox="0 0 200 67" fill="none"><g clip-path="url(#clip0_2350_1729)"><path d="M119.945 34.5H112.8C106.56 34.5 101.5 39.5592 101.5 45.8V52.9446C111.35 52.2142 119.215 44.3499 119.945 34.5Z" fill="#80896C"></path><path d="M98.5003 52.9446V45.8C98.5003 39.5592 93.4411 34.5 87.2003 34.5H80.0557C80.786 44.3499 88.6504 52.2142 98.5003 52.9446Z" fill="#80896C"></path><path d="M119.945 31.4993C119.215 21.6494 111.35 13.785 101.5 13.0547V20.1993C101.5 26.4401 106.56 31.4993 112.8 31.4993H119.945Z" fill="#80896C"></path><path d="M98.5003 13.0547C88.6504 13.785 80.786 21.6494 80.0557 31.4993H87.2003C93.4411 31.4993 98.5003 26.4401 98.5003 20.1993V13.0547Z" fill="#80896C"></path><path d="M93.583 32.9993C96.3555 31.614 98.615 29.3545 100 26.582C101.386 29.3545 103.645 31.614 106.418 32.9993C103.645 34.3845 101.386 36.644 100 39.4165C98.615 36.644 96.3555 34.3845 93.583 32.9993Z" fill="#80896C"></path></g><defs><clipPath id="clip0_2350_1729"><rect width="40" height="40" fill="white" transform="translate(80 13)"></rect></clipPath></defs></svg>