<svg xmlns="http://www.w3.org/2000/svg" width="200" height="67" viewBox="0 0 200 67" fill="none"><g clip-path="url(#clip0_2350_1720)"><path d="M64.8282 41.7883C61.8421 44.7745 56.7846 44.7626 55.3722 40.7827C55.0957 40.0035 54.8746 39.2023 54.712 38.3848C54.048 35.0468 54.3888 31.587 55.6912 28.4427C56.9936 25.2985 59.1991 22.6111 62.0289 20.7203C64.8586 18.8295 68.1855 17.8203 71.5888 17.8203C74.9921 17.8203 78.319 18.8295 81.1487 20.7203C83.9785 22.6111 86.184 25.2985 87.4864 28.4428C88.7888 31.587 89.1295 35.0468 88.4656 38.3848C88.303 39.2023 88.0819 40.0035 87.8053 40.7827C86.3929 44.7626 81.3355 44.7745 78.3493 41.7883L73.7397 37.1787C73.2993 36.7383 73.3448 36.012 73.4663 35.4012C73.5401 35.0299 73.5022 34.645 73.3573 34.2952C73.2124 33.9454 72.9671 33.6464 72.6523 33.4361C72.3375 33.2258 71.9674 33.1135 71.5888 33.1135C71.2102 33.1135 70.8401 33.2258 70.5253 33.4361C70.2104 33.6464 69.9651 33.9454 69.8202 34.2952C69.6753 34.645 69.6374 35.0299 69.7113 35.4012C69.8328 36.012 69.8782 36.7383 69.4378 37.1787L64.8282 41.7883Z" fill="#80896C"></path><path d="M102.796 37.6566H107.421V40.3823H99.2646V25.8867H102.796V37.6566Z" fill="#80896C"></path><path d="M113.731 40.5478C112.602 40.5478 111.583 40.3069 110.674 39.8251C109.78 39.3433 109.071 38.655 108.548 37.7602C108.038 36.8654 107.784 35.8192 107.784 34.6215C107.784 33.4377 108.045 32.3983 108.568 31.5035C109.091 30.595 109.807 29.8998 110.716 29.418C111.624 28.9362 112.643 28.6953 113.772 28.6953C114.901 28.6953 115.919 28.9362 116.828 29.418C117.736 29.8998 118.452 30.595 118.975 31.5035C119.498 32.3983 119.76 33.4377 119.76 34.6215C119.76 35.8054 119.492 36.8516 118.955 37.7602C118.432 38.655 117.709 39.3433 116.787 39.8251C115.878 40.3069 114.859 40.5478 113.731 40.5478ZM113.731 37.4917C114.405 37.4917 114.976 37.244 115.444 36.7484C115.926 36.2528 116.167 35.5439 116.167 34.6215C116.167 33.6992 115.933 32.9903 115.465 32.4947C115.011 31.9991 114.446 31.7513 113.772 31.7513C113.084 31.7513 112.512 31.9991 112.058 32.4947C111.604 32.9765 111.377 33.6854 111.377 34.6215C111.377 35.5439 111.597 36.2528 112.037 36.7484C112.492 37.244 113.056 37.4917 113.731 37.4917Z" fill="#80896C"></path><path d="M125.392 28.6953C126.204 28.6953 126.913 28.8605 127.519 29.1909C128.138 29.5212 128.613 29.9549 128.943 30.4917V28.8605H132.474V40.3619C132.474 41.4219 132.261 42.3787 131.834 43.2321C131.421 44.0994 130.781 44.7877 129.914 45.297C129.06 45.8064 127.993 46.0611 126.713 46.0611C125.006 46.0611 123.623 45.655 122.563 44.8428C121.503 44.0443 120.897 42.9568 120.746 41.5802H124.235C124.345 42.0207 124.607 42.3649 125.02 42.6127C125.433 42.8742 125.942 43.005 126.548 43.005C127.278 43.005 127.856 42.7916 128.283 42.3649C128.723 41.9519 128.943 41.2843 128.943 40.3619V38.7307C128.599 39.2675 128.124 39.7081 127.519 40.0522C126.913 40.3826 126.204 40.5478 125.392 40.5478C124.442 40.5478 123.581 40.3069 122.811 39.8251C122.04 39.3295 121.427 38.6343 120.973 37.7395C120.532 36.831 120.312 35.7848 120.312 34.6009C120.312 33.417 120.532 32.3777 120.973 31.4829C121.427 30.5881 122.04 29.8998 122.811 29.418C123.581 28.9362 124.442 28.6953 125.392 28.6953ZM128.943 34.6215C128.943 33.7405 128.696 33.0453 128.2 32.536C127.718 32.0267 127.126 31.772 126.424 31.772C125.722 31.772 125.123 32.0267 124.628 32.536C124.146 33.0316 123.905 33.7199 123.905 34.6009C123.905 35.4819 124.146 36.184 124.628 36.7071C125.123 37.2164 125.722 37.4711 126.424 37.4711C127.126 37.4711 127.718 37.2164 128.2 36.7071C128.696 36.1977 128.943 35.5026 128.943 34.6215Z" fill="#80896C"></path><path d="M139.654 40.5478C138.525 40.5478 137.506 40.3069 136.598 39.8251C135.703 39.3433 134.994 38.655 134.471 37.7602C133.962 36.8654 133.707 35.8192 133.707 34.6215C133.707 33.4377 133.969 32.3983 134.492 31.5035C135.015 30.595 135.731 29.8998 136.639 29.418C137.548 28.9362 138.566 28.6953 139.695 28.6953C140.824 28.6953 141.843 28.9362 142.751 29.418C143.66 29.8998 144.376 30.595 144.899 31.5035C145.422 32.3983 145.683 33.4377 145.683 34.6215C145.683 35.8054 145.415 36.8516 144.878 37.7602C144.355 38.655 143.632 39.3433 142.71 39.8251C141.801 40.3069 140.783 40.5478 139.654 40.5478ZM139.654 37.4917C140.328 37.4917 140.9 37.244 141.368 36.7484C141.85 36.2528 142.091 35.5439 142.091 34.6215C142.091 33.6992 141.856 32.9903 141.388 32.4947C140.934 31.9991 140.37 31.7513 139.695 31.7513C139.007 31.7513 138.436 31.9991 137.981 32.4947C137.527 32.9765 137.3 33.6854 137.3 34.6215C137.3 35.5439 137.52 36.2528 137.961 36.7484C138.415 37.244 138.979 37.4917 139.654 37.4917Z" fill="#80896C"></path></g><defs><clipPath id="clip0_2350_1720"><rect width="92" height="29" fill="white" transform="translate(54 18)"></rect></clipPath></defs></svg>