<svg xmlns="http://www.w3.org/2000/svg" width="200" height="67" viewBox="0 0 200 67" fill="none"><g clip-path="url(#clip0_2350_1707)"><path d="M84.7464 42.7254C86.2866 43.7997 88.7837 43.7997 90.3239 42.7254C91.864 41.6511 91.864 39.9093 90.3239 38.835C88.7837 37.7607 86.2866 37.7607 84.7464 38.835C83.2063 39.9093 83.2063 41.6511 84.7464 42.7254Z" fill="#80896C"></path><path d="M100.732 28.1379C103.042 29.7493 106.788 29.7493 109.098 28.1379C111.409 26.5264 111.409 23.9138 109.098 22.3023C106.788 20.6909 103.042 20.6909 100.732 22.3023C98.422 23.9138 98.422 26.5264 100.732 28.1379Z" fill="#80896C"></path><path d="M92.2466 35.4306C94.1718 36.7734 97.2932 36.7734 99.2184 35.4306C101.144 34.0877 101.144 31.9105 99.2184 30.5676C97.2932 29.2248 94.1718 29.2248 92.2466 30.5676C90.3214 31.9105 90.3214 34.0877 92.2466 35.4306Z" fill="#80896C"></path><path d="M79.8663 34.4596C81.0215 35.2653 82.8943 35.2653 84.0494 34.4596C85.2045 33.6539 85.2045 32.3476 84.0494 31.5418C82.8943 30.7361 81.0215 30.7361 79.8663 31.5418C78.7112 32.3476 78.7112 33.6539 79.8663 34.4596Z" fill="#80896C"></path><path d="M92.2466 19.8701C94.1718 21.2129 97.2932 21.2129 99.2184 19.8701C101.144 18.5272 101.144 16.35 99.2184 15.0071C97.2932 13.6643 94.1718 13.6643 92.2466 15.0071C90.3214 16.35 90.3214 18.5272 92.2466 19.8701Z" fill="#80896C"></path><path d="M84.7464 27.1648C86.2866 28.2391 88.7837 28.2391 90.3239 27.1648C91.864 26.0905 91.864 24.3487 90.3239 23.2745C88.7837 22.2002 86.2866 22.2002 84.7464 23.2745C83.2063 24.3487 83.2063 26.0905 84.7464 27.1648Z" fill="#80896C"></path><path d="M92.2466 50.9931C94.1718 52.3359 97.2932 52.3359 99.2184 50.9931C101.144 49.6502 101.144 47.473 99.2184 46.1301C97.2932 44.7873 94.1718 44.7873 92.2466 46.1301C90.3214 47.473 90.3214 49.6502 92.2466 50.9931Z" fill="#80896C"></path><path d="M110.901 35.9172C113.211 37.5286 116.957 37.5286 119.267 35.9172C121.578 34.3058 121.578 31.6931 119.267 30.0817C116.957 28.4702 113.211 28.4702 110.901 30.0817C108.591 31.6931 108.591 34.3058 110.901 35.9172Z" fill="#80896C"></path><path d="M100.732 43.6983C103.042 45.3098 106.788 45.3098 109.098 43.6983C111.409 42.0869 111.409 39.4743 109.098 37.8628C106.788 36.2514 103.042 36.2514 100.732 37.8628C98.422 39.4743 98.422 42.0869 100.732 43.6983Z" fill="#80896C"></path></g><defs><clipPath id="clip0_2350_1707"><rect width="42" height="38" fill="white" transform="translate(79 14)"></rect></clipPath></defs></svg>