<svg xmlns="http://www.w3.org/2000/svg" width="200" height="67" viewBox="0 0 200 67" fill="none"><g clip-path="url(#clip0_2350_1695)"><path d="M86.623 40.9153H98.4802V37.4031H90.8373V24.1738H86.623V40.9153Z" fill="#80896C"></path><path d="M99.5078 40.9153H103.389V28.927H99.5078V40.9153ZM99.5078 27.2646H103.389V24.1738H99.5078V27.2646Z" fill="#80896C"></path><path d="M105.072 44.8728H108.953V39.6747H109.001C109.763 40.6815 110.882 41.2903 112.453 41.2903C115.644 41.2903 117.763 38.8084 117.763 34.9215C117.763 31.3157 115.787 28.5762 112.548 28.5762C110.882 28.5762 109.691 29.302 108.858 30.3791H108.787V28.9274H105.072V44.8728ZM111.453 38.3401C109.787 38.3401 108.834 37.0054 108.834 35.062C108.834 33.1186 109.691 31.6435 111.382 31.6435C113.048 31.6435 113.834 33.0015 113.834 35.062C113.834 37.0991 112.929 38.3401 111.453 38.3401Z" fill="#80896C"></path><path d="M124.082 41.2903C127.273 41.2903 129.63 39.9323 129.63 37.3098C129.63 34.2425 127.106 33.704 124.963 33.3528C123.416 33.0718 122.035 32.9547 122.035 32.1118C122.035 31.3625 122.773 31.0113 123.725 31.0113C124.797 31.0113 125.535 31.3391 125.678 32.4162H129.249C129.059 30.0513 127.201 28.5762 123.749 28.5762C120.868 28.5762 118.487 29.8874 118.487 32.4162C118.487 35.2259 120.749 35.7879 122.868 36.1391C124.487 36.4201 125.963 36.5371 125.963 37.6142C125.963 38.3869 125.225 38.8084 124.059 38.8084C122.773 38.8084 121.963 38.223 121.82 37.0289H118.154C118.273 39.6747 120.511 41.2903 124.082 41.2903Z" fill="#80896C"></path><path d="M134.901 41.2672C136.591 41.2672 137.663 40.6116 138.544 39.4409H138.615V40.916H142.33V28.9277H138.449V35.6243C138.449 37.0526 137.639 38.036 136.306 38.036C135.068 38.036 134.472 37.3102 134.472 35.999V28.9277H130.615V36.7951C130.615 39.4643 132.091 41.2672 134.901 41.2672Z" fill="#80896C"></path><path d="M144.018 40.9157H147.899V34.1957C147.899 32.7674 148.613 31.7606 149.828 31.7606C150.994 31.7606 151.542 32.5098 151.542 33.7976V40.9157H155.423V34.1957C155.423 32.7674 156.113 31.7606 157.351 31.7606C158.518 31.7606 159.066 32.5098 159.066 33.7976V40.9157H162.947V33.1186C162.947 30.4259 161.566 28.5762 158.804 28.5762C157.232 28.5762 155.923 29.2318 154.97 30.6835H154.923C154.304 29.3957 153.09 28.5762 151.494 28.5762C149.732 28.5762 148.566 29.3957 147.804 30.6367H147.732V28.9274H144.018V40.9157Z" fill="#80896C"></path><path fill-rule="evenodd" clip-rule="evenodd" d="M46.9639 16.6214C45.5445 17.5974 44.2611 18.7513 43.147 20.0503C47.6999 19.6346 53.4841 20.3133 60.1996 23.6154C67.3708 27.1415 73.1454 27.2607 77.1643 26.4983C76.7996 25.4126 76.3405 24.3691 75.7967 23.3771C71.1962 23.8542 65.2984 23.2226 58.425 19.843C54.0603 17.6969 50.2129 16.8128 46.9639 16.6214ZM73.1093 19.6154C69.4763 15.6235 64.1966 13.1113 58.3202 13.1113C56.5945 13.1113 54.9201 13.328 53.3239 13.7352C55.4858 14.3153 57.7824 15.164 60.1996 16.3526C65.2319 18.827 69.5766 19.6237 73.1093 19.6154ZM78.0235 30.3095C73.1684 31.2523 66.4639 31.0586 58.425 27.1058C50.9095 23.4104 44.9278 23.457 40.8936 24.3386C40.6854 24.3841 40.482 24.4319 40.2836 24.4816C39.7554 25.6113 39.3338 26.7992 39.0313 28.0328C39.3544 27.9479 39.6883 27.8672 40.0327 27.7919C44.927 26.7223 51.8422 26.7688 60.1996 30.8782C67.7152 34.5736 73.6968 34.5271 77.7311 33.6455C77.8693 33.6153 78.0056 33.5841 78.1395 33.5519C78.1542 33.2443 78.1615 32.9347 78.1615 32.6235C78.1615 31.8406 78.1147 31.0684 78.0235 30.3095ZM77.4917 37.6696C72.6836 38.4963 66.1744 38.179 58.425 34.3687C50.9095 30.6733 44.9278 30.7198 40.8936 31.6014C39.9981 31.7971 39.1925 32.0354 38.4819 32.287C38.48 32.3989 38.479 32.5111 38.479 32.6235C38.479 43.3998 47.3622 52.1357 58.3202 52.1357C67.5039 52.1357 75.2303 46 77.4917 37.6696Z" fill="#80896C"></path></g><defs><clipPath id="clip0_2350_1695"><rect width="125" height="40" fill="white" transform="translate(38 13)"></rect></clipPath></defs></svg>